<svg xmlns="http://www.w3.org/2000/svg" viewBox="0 0 128 128" role="img" aria-label="StudySeed envelope mark">
  <path d="M17 48c0-6.4 5.2-11.6 11.6-11.6h70.8c6.4 0 11.6 5.2 11.6 11.6v49.4c0 6.4-5.2 11.6-11.6 11.6H28.6C22.2 109 17 103.8 17 97.4V48z" fill="#117C0D"/>
  <path d="M33.4 34.5 74.2 18.2c3.3-1.3 7 .6 7.8 4.1l4.8 21.9H37.4l-4-9.7z" fill="#117C0D"/>
  <path d="M21 47.6 64 82.3l43-34.7v8.6L67.8 88a6.1 6.1 0 0 1-7.6 0L21 56.2v-8.6z" fill="#F1ECE0"/>
  <path d="M35.2 36.9h57.6c2.8 0 5 2.2 5 5v37.7L64 96.6 30.2 79.6V41.9c0-2.8 2.2-5 5-5z" fill="#F1ECE0"/>
  <path d="m64 56.7 5.7-19.5 3.2 20.1 11.6-16.7-6.2 19.4 17-11.1-14.3 14.4 20.2-2.3-19.4 6.1 18.6 8.2-20.1-3.1 13 15.6-16.7-11.7 4.6 19.8L70.7 78.5 64 97.7l-6.7-19.2-10.5 17.4 4.6-19.8-16.7 11.7 13-15.6-20.1 3.1 18.6-8.2-19.4-6.1 20.2 2.3-14.3-14.4 17 11.1-6.2-19.4 11.6 16.7 3.2-20.1L64 56.7z" fill="#FAC75E"/>
  <path d="M21 56.2 57.2 85.5 21 103.9V56.2z" fill="#117C0D"/>
  <path d="M107 56.2 70.8 85.5 107 103.9V56.2z" fill="#117C0D"/>
  <path d="M22.7 105.1 60.3 74.7a6 6 0 0 1 7.4 0l37.6 30.4c-2.1 2.4-5.1 3.9-8.5 3.9H31.2c-3.4 0-6.4-1.5-8.5-3.9z" fill="#117C0D"/>
  <path d="M90.4 33.4c11.1 1.8 18.9 8.9 20.9 19.9" fill="none" stroke="#117C0D" stroke-width="8" stroke-linecap="round"/>
  <path d="m112.2 34.8 7.5 19.6-19.8-3.3 12.3-16.3z" fill="#117C0D"/>
  <path d="M96.4 66.9c9.8 6.1 15.4 16.6 15.5 30.1" fill="none" stroke="#117C0D" stroke-width="7" stroke-linecap="round"/>
  <path d="M85.6 75.1c8.9 8.6 12.6 19.3 11 32" fill="none" stroke="#117C0D" stroke-width="7" stroke-linecap="round"/>
  <path d="M75.2 80.1c6.8 10 8.1 20.7 4 31.5" fill="none" stroke="#117C0D" stroke-width="7" stroke-linecap="round"/>
</svg>
